<svg width="512" height="512" viewBox="0 0 512 512" fill="none" xmlns="http://www.w3.org/2000/svg">
<rect id="background" width="512" height="512" fill="#17181C"/>
<rect id="border" x="52.84" y="159.84" width="406.32" height="192.32" rx="7.68" stroke="white" stroke-width="7.68"/>
<path id="text" d="M164.883 281.43C160.214 281.43 156.159 280.386 152.718 278.297C149.318 276.208 146.718 273.422 144.915 269.941C143.113 266.418 142.212 262.548 142.212 258.329C142.212 253.864 143.174 249.87 145.1 246.348C147.066 242.825 149.81 240.081 153.333 238.115C156.855 236.108 160.849 235.104 165.313 235.104C167.32 235.104 169.184 235.33 170.904 235.78C172.666 236.19 174.12 236.681 175.267 237.255C176.414 237.787 177.171 238.238 177.54 238.606L174.529 244.75C172.031 242.539 168.774 241.433 164.76 241.433C161.934 241.433 159.374 242.129 157.08 243.522C154.787 244.914 152.984 246.901 151.674 249.481C150.363 252.062 149.708 255.052 149.708 258.452C149.708 261.564 150.281 264.391 151.428 266.93C152.616 269.47 154.336 271.477 156.589 272.951C158.842 274.426 161.525 275.163 164.638 275.163C168.242 275.163 171.724 274.139 175.082 272.091L177.11 277.928C176.209 278.747 174.55 279.546 172.133 280.324C169.758 281.061 167.341 281.43 164.883 281.43ZM185.061 235.842H191.942V281H185.061V235.842ZM224.871 281L215.778 263.92C213.894 264.002 212.214 264.043 210.74 264.043H209.019V281H202.322V235.842H212.583C217.785 235.842 222.065 236.927 225.424 239.098C228.782 241.228 230.462 244.709 230.462 249.543C230.462 252.574 229.745 255.195 228.311 257.407C226.919 259.578 224.83 261.257 222.045 262.445L232.797 281H224.871ZM213.382 258.452C217.396 258.452 220.14 257.591 221.614 255.871C223.13 254.11 223.888 252.021 223.888 249.604C223.888 244.238 220.304 241.556 213.136 241.556H209.019V258.452H213.382ZM260.343 281.43C255.674 281.43 251.619 280.386 248.178 278.297C244.778 276.208 242.178 273.422 240.375 269.941C238.573 266.418 237.672 262.548 237.672 258.329C237.672 253.864 238.634 249.87 240.56 246.348C242.526 242.825 245.27 240.081 248.793 238.115C252.315 236.108 256.309 235.104 260.773 235.104C262.78 235.104 264.644 235.33 266.364 235.78C268.126 236.19 269.58 236.681 270.727 237.255C271.874 237.787 272.631 238.238 273 238.606L269.989 244.75C267.491 242.539 264.234 241.433 260.22 241.433C257.394 241.433 254.834 242.129 252.54 243.522C250.247 244.914 248.444 246.901 247.134 249.481C245.823 252.062 245.168 255.052 245.168 258.452C245.168 261.564 245.741 264.391 246.888 266.93C248.076 269.47 249.796 271.477 252.049 272.951C254.302 274.426 256.985 275.163 260.098 275.163C263.702 275.163 267.184 274.139 270.542 272.091L272.57 277.928C271.669 278.747 270.01 279.546 267.593 280.324C265.218 281.061 262.801 281.43 260.343 281.43ZM279.722 235.842H286.665V274.856H299.629V281H279.722V235.842ZM306.181 235.842H325.965V241.863H313.001V254.335H323.446V260.479H313.001V274.917H327.992V281H306.181V235.842ZM334.922 235.842H345.797C354.89 235.842 361.239 237.992 364.844 242.293C368.489 246.594 370.312 251.714 370.312 257.653C370.312 261.79 369.534 265.62 367.977 269.142C366.421 272.624 363.84 275.47 360.236 277.682C356.672 279.894 351.982 281 346.166 281H334.922V235.842ZM346.903 274.917C352.556 274.917 356.652 273.32 359.191 270.125C361.772 266.889 363.062 262.834 363.062 257.96C363.062 253.209 361.772 249.338 359.191 246.348C356.611 243.358 352.515 241.863 346.903 241.863H341.804V274.917H346.903Z" fill="white"/>
</svg>
