<svg width="1000" height="1000" viewBox="0 0 1000 1000" fill="none" xmlns="http://www.w3.org/2000/svg">
<rect width="1000" height="1000" fill="#17181C"/>
<rect x="102.5" y="312.5" width="795" height="375" rx="15" stroke="white" stroke-width="15"/>
<path d="M322.038 550.84C312.918 550.84 304.998 548.8 298.278 544.72C291.638 540.64 286.558 535.2 283.038 528.4C279.518 521.52 277.758 513.96 277.758 505.72C277.758 497 279.638 489.2 283.398 482.32C287.238 475.44 292.598 470.08 299.478 466.24C306.358 462.32 314.158 460.36 322.878 460.36C326.798 460.36 330.438 460.8 333.798 461.68C337.238 462.48 340.078 463.44 342.318 464.56C344.558 465.6 346.038 466.48 346.758 467.2L340.878 479.2C335.998 474.88 329.638 472.72 321.798 472.72C316.278 472.72 311.278 474.08 306.798 476.8C302.318 479.52 298.798 483.4 296.238 488.44C293.678 493.48 292.398 499.32 292.398 505.96C292.398 512.04 293.518 517.56 295.758 522.52C298.078 527.48 301.438 531.4 305.838 534.28C310.238 537.16 315.478 538.6 321.558 538.6C328.598 538.6 335.398 536.6 341.958 532.6L345.918 544C344.158 545.6 340.918 547.16 336.198 548.68C331.558 550.12 326.838 550.84 322.038 550.84ZM361.447 461.8H374.887V550H361.447V461.8ZM439.201 550L421.441 516.64C417.761 516.8 414.481 516.88 411.601 516.88H408.241V550H395.161V461.8H415.201C425.361 461.8 433.721 463.92 440.281 468.16C446.841 472.32 450.121 479.12 450.121 488.56C450.121 494.48 448.721 499.6 445.921 503.92C443.201 508.16 439.121 511.44 433.681 513.76L454.681 550H439.201ZM416.761 505.96C424.601 505.96 429.961 504.28 432.841 500.92C435.801 497.48 437.281 493.4 437.281 488.68C437.281 478.2 430.281 472.96 416.281 472.96H408.241V505.96H416.761ZM508.483 550.84C499.363 550.84 491.443 548.8 484.723 544.72C478.083 540.64 473.003 535.2 469.483 528.4C465.963 521.52 464.203 513.96 464.203 505.72C464.203 497 466.083 489.2 469.843 482.32C473.683 475.44 479.043 470.08 485.923 466.24C492.803 462.32 500.603 460.36 509.323 460.36C513.243 460.36 516.883 460.8 520.243 461.68C523.683 462.48 526.523 463.44 528.763 464.56C531.003 465.6 532.483 466.48 533.203 467.2L527.323 479.2C522.443 474.88 516.083 472.72 508.243 472.72C502.723 472.72 497.723 474.08 493.243 476.8C488.763 479.52 485.243 483.4 482.683 488.44C480.123 493.48 478.843 499.32 478.843 505.96C478.843 512.04 479.963 517.56 482.203 522.52C484.523 527.48 487.883 531.4 492.283 534.28C496.683 537.16 501.923 538.6 508.003 538.6C515.043 538.6 521.843 536.6 528.403 532.6L532.363 544C530.603 545.6 527.363 547.16 522.643 548.68C518.003 550.12 513.283 550.84 508.483 550.84ZM546.333 461.8H559.893V538H585.213V550H546.333V461.8ZM598.01 461.8H636.65V473.56H611.33V497.92H631.73V509.92H611.33V538.12H640.61V550H598.01V461.8ZM654.145 461.8H675.385C693.145 461.8 705.545 466 712.585 474.4C719.705 482.8 723.265 492.8 723.265 504.4C723.265 512.48 721.745 519.96 718.705 526.84C715.665 533.64 710.625 539.2 703.585 543.52C696.625 547.84 687.465 550 676.105 550H654.145V461.8ZM677.545 538.12C688.585 538.12 696.585 535 701.545 528.76C706.585 522.44 709.105 514.52 709.105 505C709.105 495.72 706.585 488.16 701.545 482.32C696.505 476.48 688.505 473.56 677.545 473.56H667.585V538.12H677.545Z" fill="white"/>
</svg>
