<svg width="3000" height="3000" viewBox="0 0 3000 3000" fill="none" xmlns="http://www.w3.org/2000/svg">
<rect id="background" width="3000" height="3000" fill="#17181C"/>
<rect id="border" x="309.5" y="936.5" width="2380.62" height="1126.8" rx="45" stroke="white" stroke-width="45"/>
<path id="text" d="M965.613 1650.52C938.253 1650.52 914.493 1644.4 894.333 1632.16C874.413 1619.92 859.173 1603.6 848.613 1583.2C838.053 1562.56 832.773 1539.88 832.773 1515.16C832.773 1489 838.413 1465.6 849.693 1444.96C861.213 1424.32 877.293 1408.24 897.933 1396.72C918.573 1384.96 941.973 1379.08 968.133 1379.08C979.893 1379.08 990.813 1380.4 1000.89 1383.04C1011.21 1385.44 1019.73 1388.32 1026.45 1391.68C1033.17 1394.8 1037.61 1397.44 1039.77 1399.6L1022.13 1435.6C1007.49 1422.64 988.413 1416.16 964.893 1416.16C948.333 1416.16 933.333 1420.24 919.893 1428.4C906.453 1436.56 895.893 1448.2 888.213 1463.32C880.533 1478.44 876.693 1495.96 876.693 1515.88C876.693 1534.12 880.053 1550.68 886.773 1565.56C893.733 1580.44 903.813 1592.2 917.013 1600.84C930.213 1609.48 945.933 1613.8 964.173 1613.8C985.293 1613.8 1005.69 1607.8 1025.37 1595.8L1037.25 1630C1031.97 1634.8 1022.25 1639.48 1008.09 1644.04C994.173 1648.36 980.013 1650.52 965.613 1650.52ZM1083.84 1383.4H1124.16V1648H1083.84V1383.4ZM1317.1 1648L1263.82 1547.92C1252.78 1548.4 1242.94 1548.64 1234.3 1548.64H1224.22V1648H1184.98V1383.4H1245.1C1275.58 1383.4 1300.66 1389.76 1320.34 1402.48C1340.02 1414.96 1349.86 1435.36 1349.86 1463.68C1349.86 1481.44 1345.66 1496.8 1337.26 1509.76C1329.1 1522.48 1316.86 1532.32 1300.54 1539.28L1363.54 1648H1317.1ZM1249.78 1515.88C1273.3 1515.88 1289.38 1510.84 1298.02 1500.76C1306.9 1490.44 1311.34 1478.2 1311.34 1464.04C1311.34 1432.6 1290.34 1416.88 1248.34 1416.88H1224.22V1515.88H1249.78ZM1524.95 1650.52C1497.59 1650.52 1473.83 1644.4 1453.67 1632.16C1433.75 1619.92 1418.51 1603.6 1407.95 1583.2C1397.39 1562.56 1392.11 1539.88 1392.11 1515.16C1392.11 1489 1397.75 1465.6 1409.03 1444.96C1420.55 1424.32 1436.63 1408.24 1457.27 1396.72C1477.91 1384.96 1501.31 1379.08 1527.47 1379.08C1539.23 1379.08 1550.15 1380.4 1560.23 1383.04C1570.55 1385.44 1579.07 1388.32 1585.79 1391.68C1592.51 1394.8 1596.95 1397.44 1599.11 1399.6L1581.47 1435.6C1566.83 1422.64 1547.75 1416.16 1524.23 1416.16C1507.67 1416.16 1492.67 1420.24 1479.23 1428.4C1465.79 1436.56 1455.23 1448.2 1447.55 1463.32C1439.87 1478.44 1436.03 1495.96 1436.03 1515.88C1436.03 1534.12 1439.39 1550.68 1446.11 1565.56C1453.07 1580.44 1463.15 1592.2 1476.35 1600.84C1489.55 1609.48 1505.27 1613.8 1523.51 1613.8C1544.63 1613.8 1565.03 1607.8 1584.71 1595.8L1596.59 1630C1591.31 1634.8 1581.59 1639.48 1567.43 1644.04C1553.51 1648.36 1539.35 1650.52 1524.95 1650.52ZM1638.5 1383.4H1679.18V1612H1755.14V1648H1638.5V1383.4ZM1793.53 1383.4H1909.45V1418.68H1833.49V1491.76H1894.69V1527.76H1833.49V1612.36H1921.33V1648H1793.53V1383.4ZM1961.94 1383.4H2025.66C2078.94 1383.4 2116.14 1396 2137.26 1421.2C2158.62 1446.4 2169.3 1476.4 2169.3 1511.2C2169.3 1535.44 2164.74 1557.88 2155.62 1578.52C2146.5 1598.92 2131.38 1615.6 2110.26 1628.56C2089.38 1641.52 2061.9 1648 2027.82 1648H1961.94V1383.4ZM2032.14 1612.36C2065.26 1612.36 2089.26 1603 2104.14 1584.28C2119.26 1565.32 2126.82 1541.56 2126.82 1513C2126.82 1485.16 2119.26 1462.48 2104.14 1444.96C2089.02 1427.44 2065.02 1418.68 2032.14 1418.68H2002.26V1612.36H2032.14Z" fill="white"/>
<rect x="1010.85" y="2377.85" width="978.48" height="328.14" rx="17.31" stroke="white" stroke-width="11.7"/>
<path d="M1350.94 2498.95H1397.43V2512.02H1365.9V2540.05H1390.43V2553.26H1365.9V2598H1350.94V2498.95ZM1411.48 2536.15H1426.58V2598H1411.48V2536.15ZM1418.9 2524.56C1416.11 2524.56 1413.78 2523.61 1411.89 2521.73C1410 2519.84 1409.06 2517.5 1409.06 2514.72C1409.06 2512.2 1410 2510.05 1411.89 2508.25C1413.78 2506.45 1416.11 2505.55 1418.9 2505.55C1421.59 2505.55 1423.88 2506.45 1425.77 2508.25C1427.66 2510.05 1428.6 2512.2 1428.6 2514.72C1428.6 2517.5 1427.66 2519.84 1425.77 2521.73C1423.97 2523.61 1421.68 2524.56 1418.9 2524.56ZM1447.94 2498.95H1462.36V2598H1447.94V2498.95ZM1484 2498.95H1498.42V2598H1484V2498.95ZM1554.57 2498.95H1569.67V2598H1554.57V2498.95ZM1591.49 2536.15H1605.77L1605.91 2547.46C1607.62 2543.69 1610.31 2540.59 1613.99 2538.17C1617.68 2535.74 1621.99 2534.53 1626.93 2534.53C1633.31 2534.53 1638.21 2535.88 1641.62 2538.57C1645.03 2541.18 1647.33 2544.86 1648.49 2549.62C1649.66 2554.38 1650.25 2560.58 1650.25 2568.22V2598H1635.69V2568.62C1635.69 2560.81 1634.93 2555.19 1633.4 2551.78C1631.87 2548.27 1628.73 2546.52 1623.97 2546.52C1621.27 2546.52 1618.53 2547.38 1615.75 2549.08C1612.96 2550.7 1610.63 2553.08 1608.74 2556.22C1606.94 2559.37 1606.04 2563.05 1606.04 2567.27V2598H1591.49V2536.15Z" fill="white"/>
</svg>
