<svg width="224" height="224" viewBox="0 0 224 224" fill="none" xmlns="http://www.w3.org/2000/svg">
<path d="M192.713 30.9592L122.757 82.9165L135.693 52.2624L192.713 30.9592Z" fill="#E2761B" stroke="#E2761B" stroke-linecap="round" stroke-linejoin="round"/>
<path d="M31.2158 30.9592L100.609 83.4086L88.3056 52.2624L31.2158 30.9592Z" fill="#E4761B" stroke="#E4761B" stroke-linecap="round" stroke-linejoin="round"/>
<path d="M167.543 151.396L148.911 179.941L188.776 190.909L200.236 152.029L167.543 151.396Z" fill="#E4761B" stroke="#E4761B" stroke-linecap="round" stroke-linejoin="round"/>
<path d="M23.834 152.029L35.2238 190.909L75.0882 179.941L56.4567 151.396L23.834 152.029Z" fill="#E4761B" stroke="#E4761B" stroke-linecap="round" stroke-linejoin="round"/>
<path d="M72.8381 103.165L61.7295 119.969L101.313 121.726L99.9065 79.1902L72.8381 103.165Z" fill="#E4761B" stroke="#E4761B" stroke-linecap="round" stroke-linejoin="round"/>
<path d="M151.091 103.165L123.671 78.698L122.757 121.726L162.27 119.969L151.091 103.165Z" fill="#E4761B" stroke="#E4761B" stroke-linecap="round" stroke-linejoin="round"/>
<path d="M75.0879 179.941L98.8519 168.34L78.322 152.31L75.0879 179.941Z" fill="#E4761B" stroke="#E4761B" stroke-linecap="round" stroke-linejoin="round"/>
<path d="M125.077 168.34L148.911 179.941L145.607 152.31L125.077 168.34Z" fill="#E4761B" stroke="#E4761B" stroke-linecap="round" stroke-linejoin="round"/>
<path d="M148.911 179.941L125.077 168.34L126.975 183.878L126.765 190.417L148.911 179.941Z" fill="#D7C1B3" stroke="#D7C1B3" stroke-linecap="round" stroke-linejoin="round"/>
<path d="M75.0889 179.941L97.2358 190.417L97.0951 183.878L98.8528 168.34L75.0889 179.941Z" fill="#D7C1B3" stroke="#D7C1B3" stroke-linecap="round" stroke-linejoin="round"/>
<path d="M97.5865 142.045L77.7598 136.21L91.751 129.812L97.5865 142.045Z" fill="#233447" stroke="#233447" stroke-linecap="round" stroke-linejoin="round"/>
<path d="M126.343 142.045L132.178 129.812L146.24 136.21L126.343 142.045Z" fill="#233447" stroke="#233447" stroke-linecap="round" stroke-linejoin="round"/>
<path d="M75.0885 179.941L78.4633 151.396L56.457 152.029L75.0885 179.941Z" fill="#CD6116" stroke="#CD6116" stroke-linecap="round" stroke-linejoin="round"/>
<path d="M145.537 151.396L148.912 179.941L167.543 152.029L145.537 151.396Z" fill="#CD6116" stroke="#CD6116" stroke-linecap="round" stroke-linejoin="round"/>
<path d="M162.27 119.969L122.757 121.726L126.413 142.045L132.248 129.812L146.31 136.21L162.27 119.969Z" fill="#CD6116" stroke="#CD6116" stroke-linecap="round" stroke-linejoin="round"/>
<path d="M77.7606 136.21L91.8221 129.812L97.5873 142.045L101.314 121.726L61.7305 119.969L77.7606 136.21Z" fill="#CD6116" stroke="#CD6116" stroke-linecap="round" stroke-linejoin="round"/>
<path d="M61.7305 119.969L78.3231 152.31L77.7606 136.21L61.7305 119.969Z" fill="#E4751F" stroke="#E4751F" stroke-linecap="round" stroke-linejoin="round"/>
<path d="M146.31 136.21L145.607 152.31L162.27 119.969L146.31 136.21Z" fill="#E4751F" stroke="#E4751F" stroke-linecap="round" stroke-linejoin="round"/>
<path d="M101.313 121.726L97.5869 142.045L102.227 166.02L103.282 134.452L101.313 121.726Z" fill="#E4751F" stroke="#E4751F" stroke-linecap="round" stroke-linejoin="round"/>
<path d="M122.758 121.726L120.859 134.382L121.703 166.02L126.414 142.045L122.758 121.726Z" fill="#E4751F" stroke="#E4751F" stroke-linecap="round" stroke-linejoin="round"/>
<path d="M126.413 142.045L121.702 166.02L125.077 168.34L145.607 152.31L146.31 136.21L126.413 142.045Z" fill="#F6851B" stroke="#F6851B" stroke-linecap="round" stroke-linejoin="round"/>
<path d="M77.7598 136.21L78.3222 152.31L98.8521 168.34L102.227 166.02L97.5865 142.045L77.7598 136.21Z" fill="#F6851B" stroke="#F6851B" stroke-linecap="round" stroke-linejoin="round"/>
<path d="M126.765 190.417L126.976 183.878L125.218 182.331H98.7122L97.0951 183.878L97.2358 190.417L75.0889 179.941L82.8227 186.269L98.5013 197.166H125.429L141.178 186.269L148.912 179.941L126.765 190.417Z" fill="#C0AD9E" stroke="#C0AD9E" stroke-linecap="round" stroke-linejoin="round"/>
<path d="M125.077 168.34L121.702 166.02H102.227L98.8524 168.34L97.0947 183.878L98.7118 182.331H125.218L126.975 183.878L125.077 168.34Z" fill="#161616" stroke="#161616" stroke-linecap="round" stroke-linejoin="round"/>
<path d="M195.666 86.2912L201.642 57.6057L192.713 30.9592L125.077 81.1588L151.091 103.165L187.862 113.922L196.018 104.431L192.502 101.9L198.127 96.7671L193.768 93.3923L199.392 89.1035L195.666 86.2912Z" fill="#763D16" stroke="#763D16" stroke-linecap="round" stroke-linejoin="round"/>
<path d="M22.3574 57.6057L28.3336 86.2912L24.537 89.1035L30.1616 93.3923L25.8728 96.7671L31.4974 101.9L27.982 104.431L36.0674 113.922L72.8383 103.165L98.8521 81.1588L31.2162 30.9592L22.3574 57.6057Z" fill="#763D16" stroke="#763D16" stroke-linecap="round" stroke-linejoin="round"/>
<path d="M187.862 113.922L151.091 103.165L162.27 119.969L145.607 152.31L167.543 152.029H200.236L187.862 113.922Z" fill="#F6851B" stroke="#F6851B" stroke-linecap="round" stroke-linejoin="round"/>
<path d="M72.8384 103.165L36.0675 113.922L23.834 152.029H56.4567L78.3224 152.31L61.7298 119.969L72.8384 103.165Z" fill="#F6851B" stroke="#F6851B" stroke-linecap="round" stroke-linejoin="round"/>
<path d="M122.757 121.726L125.078 81.1588L135.764 52.2624H88.3066L98.8528 81.1588L101.314 121.726L102.157 134.522L102.228 166.02H121.703L121.843 134.522L122.757 121.726Z" fill="#F6851B" stroke="#F6851B" stroke-linecap="round" stroke-linejoin="round"/>
</svg>
