<svg width="30" height="27" viewBox="0 0 30 27" fill="none" xmlns="http://www.w3.org/2000/svg">
<path d="M1.78499 15.4175L1.89 15.2525L8.22001 5.35C8.31248 5.20497 8.53001 5.22001 8.59998 5.37747C9.6575 7.74751 10.57 10.695 10.1425 12.53C9.95999 13.285 9.46002 14.3075 8.8975 15.2525C8.82498 15.39 8.74501 15.525 8.66001 15.655C8.61999 15.715 8.55251 15.75 8.48 15.75H1.96997C1.79499 15.75 1.69252 15.56 1.78499 15.4175Z" fill="#FFB229"/>
<path d="M30 17.2575V18.825C30 18.915 29.945 18.995 29.865 19.03C29.375 19.24 27.6975 20.01 27 20.98C25.22 23.4575 23.86 27 20.82 27H8.13753C3.6425 27 0 23.345 0 18.835V18.69C0 18.57 0.0974945 18.4725 0.217538 18.4725H7.28749C7.42749 18.4725 7.53001 18.6025 7.51752 18.74C7.4675 19.2 7.55251 19.67 7.76999 20.0975C8.19003 20.95 9.06002 21.4825 10 21.4825H13.5V18.75H10.04C9.86253 18.75 9.75752 18.545 9.86004 18.4C9.89751 18.3425 9.94002 18.2825 9.985 18.215C10.3125 17.75 10.78 17.0275 11.245 16.205C11.5625 15.65 11.87 15.0575 12.1175 14.4625C12.1675 14.355 12.2075 14.245 12.2475 14.1375C12.315 13.9475 12.385 13.77 12.435 13.5925C12.485 13.4425 12.525 13.285 12.565 13.1375C12.6825 12.6325 12.7325 12.0975 12.7325 11.5425C12.7325 11.325 12.7225 11.0975 12.7025 10.88C12.6925 10.6425 12.6625 10.405 12.6325 10.1675C12.6125 9.95748 12.575 9.75 12.535 9.53252C12.485 9.215 12.415 8.90002 12.335 8.5825L12.3075 8.46251C12.2475 8.24503 12.1975 8.03749 12.1275 7.82001C11.93 7.13749 11.7025 6.47249 11.4625 5.85C11.375 5.60251 11.275 5.36501 11.175 5.12752C11.0275 4.76999 10.8775 4.44501 10.74 4.13749C10.67 3.99749 10.61 3.86999 10.55 3.74C10.4825 3.59248 10.4125 3.44503 10.3425 3.30497C10.2925 3.19748 10.235 3.09749 10.195 2.99751L9.76752 2.2075C9.7075 2.1 9.80754 1.97249 9.92498 2.00499L12.6 2.73001H12.6075C12.6125 2.73001 12.615 2.7325 12.6175 2.7325L12.97 2.82999L13.3575 2.93998L13.5 2.97999V1.39001C13.5 0.622495 14.115 0 14.875 0C15.255 0 15.6 0.154974 15.8475 0.407498C16.095 0.660021 16.25 1.00501 16.25 1.39001V3.75L16.535 3.82997C16.5575 3.83749 16.58 3.84749 16.6 3.86247C16.67 3.91498 16.77 3.99252 16.8975 4.08747C16.9975 4.1675 17.105 4.265 17.235 4.36498C17.4925 4.57251 17.8 4.84001 18.1375 5.14748C18.2275 5.22502 18.315 5.30499 18.395 5.38502C18.83 5.78998 19.3175 6.26501 19.7825 6.79001C19.9125 6.93747 20.04 7.08747 20.17 7.24499C20.3 7.40499 20.4375 7.56251 20.5575 7.72003C20.715 7.92999 20.885 8.14748 21.0325 8.37502C21.1025 8.48252 21.1825 8.5925 21.25 8.7C21.44 8.98751 21.6075 9.28502 21.7675 9.58248C21.835 9.71999 21.905 9.86999 21.965 10.0175C22.1425 10.415 22.2825 10.82 22.3725 11.225C22.4 11.3125 22.42 11.4075 22.43 11.4925V11.5125C22.46 11.6325 22.47 11.76 22.48 11.89C22.52 12.305 22.5 12.72 22.41 13.1375C22.3725 13.315 22.3225 13.4825 22.2625 13.66C22.2025 13.83 22.1425 14.0075 22.065 14.175C21.915 14.5225 21.7375 14.87 21.5275 15.195C21.46 15.315 21.38 15.4425 21.3 15.5625C21.2125 15.69 21.1225 15.81 21.0425 15.9275C20.9325 16.0775 20.815 16.235 20.695 16.375C20.5875 16.5225 20.4775 16.67 20.3575 16.8C20.19 16.9975 20.03 17.185 19.8625 17.365C19.7625 17.4825 19.655 17.6025 19.545 17.71C19.4375 17.83 19.3275 17.9375 19.2275 18.0375C19.06 18.205 18.92 18.335 18.8025 18.4425L18.5275 18.695C18.4875 18.73 18.435 18.75 18.38 18.75H16.25V21.4825H18.93C19.53 21.4825 20.1 21.27 20.56 20.88C20.7175 20.7425 21.405 20.1475 22.2175 19.25C22.245 19.22 22.28 19.1975 22.32 19.1875L29.7225 17.0475C29.86 17.0075 30 17.1125 30 17.2575Z" fill="#FFB229"/>
</svg>
