<svg width="30" height="24" viewBox="0 0 30 24" fill="none" xmlns="http://www.w3.org/2000/svg">
<path d="M9.41252 24C20.7407 24 26.9349 14.7644 26.9349 6.76021C26.9349 6.49634 26.9349 6.23246 26.9221 5.98115C28.1226 5.1267 29.1699 4.05864 30 2.83979C28.9017 3.31728 27.7139 3.64398 26.4623 3.79476C27.7395 3.04084 28.7101 1.85969 29.1699 0.439791C27.9821 1.13089 26.6667 1.63351 25.2618 1.90995C24.1379 0.728795 22.5415 0 20.7663 0C17.3691 0 14.6105 2.71414 14.6105 6.05654C14.6105 6.53403 14.6616 6.99895 14.7765 7.43874C9.65517 7.18743 5.12133 4.77487 2.08174 1.10576C1.55811 1.99791 1.2516 3.04084 1.2516 4.1466C1.2516 6.24503 2.33717 8.10471 3.99745 9.18534C2.98851 9.16021 2.04342 8.88377 1.21328 8.43141C1.21328 8.45654 1.21328 8.48167 1.21328 8.50681C1.21328 11.4471 3.33333 13.8848 6.15581 14.4503C5.64495 14.5885 5.09579 14.6639 4.53384 14.6639C4.13793 14.6639 3.75479 14.6262 3.37165 14.5508C4.1507 16.9634 6.42401 18.7099 9.11877 18.7602C7.0115 20.3811 4.35504 21.3487 1.46871 21.3487C0.970626 21.3487 0.485313 21.3236 0 21.2607C2.69476 22.9948 5.9387 24 9.41252 24Z" fill="#FFB229"/>
</svg>
